# picocad model
mtllib unnamed.mtl
o unnamed
v 0.75 0.5 0.25
v 0.25 0.5 0.75
v -0.25 0.5 0.75
v -0.75 0.5 0.25
v -0.75 0.5 -0.25
v -0.25 0.5 -0.75
v 0.25 0.5 -0.75
v 0.75 0.5 -0.25
v 0.75 -0.5 0.25
v 0.25 -0.5 0.75
v -0.25 -0.5 0.75
v -0.75 -0.5 0.25
v -0.75 -0.5 -0.25
v -0.25 -0.5 -0.75
v 0.25 -0.5 -0.75
v 0.75 -0.5 -0.25

vt 0.78125 0.875
vt 0.75 0.90625
vt 0.75 0.96875
vt 0.78125 1
vt 0.84375 1
vt 0.875 0.96875
vt 0.875 0.90625
vt 0.84375 0.875
vt 0.78125 0.875
vt 0.75 0.90625
vt 0.75 0.96875
vt 0.78125 1
vt 0.84375 1
vt 0.875 0.96875
vt 0.875 0.90625
vt 0.84375 0.875
vt 0.875 1
vt 0.875 0.875
vt 0.75 0.875
vt 0.75 1
vt 0.875 1
vt 0.875 0.875
vt 0.75 0.875
vt 0.75 1
vt 0.875 1
vt 0.875 0.875
vt 0.75 0.875
vt 0.75 1
vt 0.875 1
vt 0.875 0.875
vt 0.75 0.875
vt 0.75 1
vt 0.875 1
vt 0.875 0.875
vt 0.75 0.875
vt 0.75 1
vt 0.875 1
vt 0.875 0.875
vt 0.75 0.875
vt 0.75 1
vt 0.875 1
vt 0.875 0.875
vt 0.75 0.875
vt 0.75 1
vt 0.875 1
vt 0.875 0.875
vt 0.75 0.875
vt 0.75 1

usemtl unnamed.mtl
s off
f 8/8/1 7/7/1 6/6/1 5/5/1 4/4/1 3/3/1 2/2/1 1/1/1 
f 9/16/2 10/15/2 11/14/2 12/13/2 13/12/2 14/11/2 15/10/2 16/9/2 
f 2/20/3 10/19/3 9/18/3 1/17/3 
f 3/24/4 11/23/4 10/22/4 2/21/4 
f 4/28/5 12/27/5 11/26/5 3/25/5 
f 5/32/6 13/31/6 12/30/6 4/29/6 
f 6/36/7 14/35/7 13/34/7 5/33/7 
f 7/40/8 15/39/8 14/38/8 6/37/8 
f 8/44/9 16/43/9 15/42/9 7/41/9 
f 1/48/10 9/47/10 16/46/10 8/45/10 

